<svg viewBox="0 0 240 240" fill="none" xmlns="http://www.w3.org/2000/svg" xmlns:xlink="http://www.w3.org/1999/xlink" x="0" y="0"><g id="logo">
<circle id="Ellipse 10" cx="120" cy="120" r="120" fill="black"/>
<g id="logo-white">
<path id="Vector_3" d="M53.479,67h136v102h-136z" stroke="white" stroke-width="6"/>
<path id="Vector_4" d="M68.633,101.25c-2.567,0 -4.883,-0.5 -6.95,-1.5c-2.067,-1 -3.85,-2.35 -5.35,-4.05c-1.5,-1.73 -2.667,-3.67 -3.5,-5.8c-0.8,-2.17 -1.2,-4.38 -1.2,-6.65c0,-2.37 0.433,-4.62 1.3,-6.75c0.867,-2.17 2.067,-4.08 3.6,-5.75c1.533,-1.7 3.333,-3.03 5.4,-4c2.1,-1 4.367,-1.5 6.8,-1.5c2.533,0 4.833,0.52 6.9,1.55c2.1,1.03 3.883,2.42 5.35,4.15c1.5,1.73 2.65,3.67 3.45,5.8c0.833,2.13 1.25,4.32 1.25,6.55c0,2.37 -0.433,4.63 -1.3,6.8c-0.833,2.13 -2.017,4.05 -3.55,5.75c-1.533,1.67 -3.35,2.98 -5.45,3.95c-2.067,0.97 -4.317,1.45 -6.75,1.45zM57.333,83.25c0,1.67 0.267,3.28 0.8,4.85c0.533,1.57 1.283,2.97 2.25,4.2c1,1.2 2.2,2.15 3.6,2.85c1.4,0.7 2.967,1.05 4.7,1.05c1.8,0 3.4,-0.37 4.8,-1.1c1.4,-0.73 2.567,-1.72 3.5,-2.95c0.967,-1.27 1.7,-2.67 2.2,-4.2c0.5,-1.57 0.75,-3.13 0.75,-4.7c0,-1.67 -0.267,-3.27 -0.8,-4.8c-0.5,-1.57 -1.25,-2.95 -2.25,-4.15c-1,-1.23 -2.2,-2.2 -3.6,-2.9c-1.367,-0.7 -2.9,-1.05 -4.6,-1.05c-1.8,0 -3.4,0.37 -4.8,1.1c-1.4,0.73 -2.583,1.72 -3.55,2.95c-0.967,1.23 -1.717,2.62 -2.25,4.15c-0.5,1.53 -0.75,3.1 -0.75,4.7zM136.631,65.5v35.5h-5.65v-15.65h-17.9v15.65h-5.6v-35.5h5.6v14.85h17.9v-14.85zM175.389,101.25c-2.566,0 -4.883,-0.5 -6.95,-1.5c-2.066,-1 -3.85,-2.35 -5.35,-4.05c-1.5,-1.73 -2.666,-3.67 -3.5,-5.8c-0.8,-2.17 -1.2,-4.38 -1.2,-6.65c0,-2.37 0.434,-4.62 1.3,-6.75c0.867,-2.17 2.067,-4.08 3.6,-5.75c1.534,-1.7 3.334,-3.03 5.4,-4c2.1,-1 4.367,-1.5 6.8,-1.5c2.534,0 4.834,0.52 6.9,1.55c2.1,1.03 3.884,2.42 5.35,4.15c1.5,1.73 2.65,3.67 3.45,5.8c0.834,2.13 1.25,4.32 1.25,6.55c0,2.37 -0.433,4.63 -1.3,6.8c-0.833,2.13 -2.016,4.05 -3.55,5.75c-1.533,1.67 -3.35,2.98 -5.45,3.95c-2.066,0.97 -4.316,1.45 -6.75,1.45zM164.089,83.25c0,1.67 0.267,3.28 0.8,4.85c0.534,1.57 1.284,2.97 2.25,4.2c1,1.2 2.2,2.15 3.6,2.85c1.4,0.7 2.967,1.05 4.7,1.05c1.8,0 3.4,-0.37 4.8,-1.1c1.4,-0.73 2.567,-1.72 3.5,-2.95c0.967,-1.27 1.7,-2.67 2.2,-4.2c0.5,-1.57 0.75,-3.13 0.75,-4.7c0,-1.67 -0.266,-3.27 -0.8,-4.8c-0.5,-1.57 -1.25,-2.95 -2.25,-4.15c-1,-1.23 -2.2,-2.2 -3.6,-2.9c-1.366,-0.7 -2.9,-1.05 -4.6,-1.05c-1.8,0 -3.4,0.37 -4.8,1.1c-1.4,0.73 -2.583,1.72 -3.55,2.95c-0.966,1.23 -1.716,2.62 -2.25,4.15c-0.5,1.53 -0.75,3.1 -0.75,4.7zM80.194,105.45h-11.8v30.55h-5.65v-30.55h-11.85v-4.95h29.3zM114.804,131.05v4.95h-24.35v-35.5h23.9v4.95h-18.3v10.1h15.85v4.65h-15.85v10.85zM126.131,136v-35.5h24.951v4.9h-19.351v9.95h10.4c3.934,0 6.884,0.93 8.851,2.8c1.966,1.83 2.95,4.27 2.95,7.3c0,2.03 -0.434,3.85 -1.3,5.45c-0.834,1.57 -2.1,2.82 -3.8,3.75c-1.667,0.9 -3.784,1.35 -6.351,1.35zM131.731,131.1h10c1.534,0 2.767,-0.28 3.7,-0.85c0.967,-0.57 1.651,-1.28 2.051,-2.15c0.433,-0.9 0.65,-1.83 0.65,-2.8c0,-0.97 -0.184,-1.87 -0.55,-2.7c-0.367,-0.83 -1.034,-1.5 -2.001,-2c-0.933,-0.53 -2.25,-0.8 -3.95,-0.8h-9.9zM189.037,131.05v4.95h-24.35v-35.5h23.9v4.95h-18.3v10.1h15.85v4.65h-15.85v10.85zM80.069,135.5v35.5h-5.65v-15.65h-17.9v15.65h-5.6v-35.5h5.6v14.85h17.9v-14.85zM99.327,135.5h5.3l13.8,35.5h-5.9l-3.75,-9.65h-13.7l-3.7,9.65h-5.95zM107.677,157.2l-5.7,-15.55l-5.9,15.55zM118.218,177.8v-11.75h1.7c0.933,0 1.733,-0.37 2.4,-1.1c0.7,-0.73 1.283,-1.9 1.75,-3.5c0.5,-1.6 0.883,-3.7 1.15,-6.3c0.3,-2.63 0.516,-5.85 0.65,-9.65l0.25,-10h22.85v30.55h4.5v11.75h-4.95v-6.8h-25.35v6.8zM127.018,166.05h16.3v-25.6h-12l-0.15,5.8c-0.1,3.83 -0.3,7.08 -0.6,9.75c-0.3,2.63 -0.734,4.77 -1.3,6.4c-0.567,1.63 -1.317,2.85 -2.25,3.65zM175.191,171.25c-2.567,0 -4.883,-0.5 -6.95,-1.5c-2.067,-1 -3.85,-2.35 -5.35,-4.05c-1.5,-1.73 -2.667,-3.67 -3.5,-5.8c-0.8,-2.17 -1.2,-4.38 -1.2,-6.65c0,-2.37 0.433,-4.62 1.3,-6.75c0.867,-2.17 2.067,-4.08 3.6,-5.75c1.533,-1.7 3.333,-3.03 5.4,-4c2.1,-1 4.367,-1.5 6.8,-1.5c2.533,0 4.833,0.52 6.9,1.55c2.1,1.03 3.883,2.42 5.35,4.15c1.5,1.73 2.65,3.67 3.45,5.8c0.833,2.13 1.25,4.32 1.25,6.55c0,2.37 -0.433,4.63 -1.3,6.8c-0.833,2.13 -2.017,4.05 -3.55,5.75c-1.533,1.67 -3.35,2.98 -5.45,3.95c-2.067,0.97 -4.317,1.45 -6.75,1.45zM163.891,153.25c0,1.67 0.267,3.28 0.8,4.85c0.533,1.57 1.283,2.97 2.25,4.2c1,1.2 2.2,2.15 3.6,2.85c1.4,0.7 2.967,1.05 4.7,1.05c1.8,0 3.4,-0.37 4.8,-1.1c1.4,-0.73 2.567,-1.72 3.5,-2.95c0.967,-1.27 1.7,-2.67 2.2,-4.2c0.5,-1.57 0.75,-3.13 0.75,-4.7c0,-1.67 -0.267,-3.27 -0.8,-4.8c-0.5,-1.57 -1.25,-2.95 -2.25,-4.15c-1,-1.23 -2.2,-2.2 -3.6,-2.9c-1.367,-0.7 -2.9,-1.05 -4.6,-1.05c-1.8,0 -3.4,0.37 -4.8,1.1c-1.4,0.73 -2.583,1.72 -3.55,2.95c-0.967,1.23 -1.717,2.62 -2.25,4.15c-0.5,1.53 -0.75,3.1 -0.75,4.7z" fill="white"/>
</g>
</g></svg>