<svg viewBox="0 0 148 105" fill="none" xmlns="http://www.w3.org/2000/svg" xmlns:xlink="http://www.w3.org/1999/xlink" x="0" y="0"><defs><clipPath id="clip2_0_3">
<rect width="148" height="105" fill="white" transform="translate(0, 0)"/>
</clipPath></defs><g id="logo_2" clip-path="url(#clip2_0_3)">
<path id="Vector_5" d="M11.385,2.7895h124.054v94.8425h-124.054z" stroke="black" stroke-width="6"/>
<path id="Vector_6" d="M25.208,34.636c-2.341,0 -4.454,-0.465 -6.339,-1.395c-1.885,-0.93 -3.512,-2.185 -4.88,-3.766c-1.368,-1.611 -2.433,-3.409 -3.193,-5.393c-0.729,-2.014 -1.094,-4.075 -1.094,-6.183c0,-2.2 0.395,-4.293 1.186,-6.276c0.79,-2.015 1.885,-3.797 3.283,-5.3467c1.399,-1.5807 3.041,-2.8204 4.926,-3.7193c1.916,-0.9298 3.983,-1.3947 6.203,-1.3947c2.31,0 4.408,0.4804 6.294,1.4412c1.915,0.9608 3.542,2.2471 4.88,3.8588c1.368,1.6117 2.417,3.4097 3.147,5.3927c0.76,1.984 1.14,4.014 1.14,6.091c0,2.2 -0.395,4.308 -1.186,6.322c-0.76,1.984 -1.84,3.766 -3.238,5.347c-1.399,1.55 -3.056,2.774 -4.971,3.673c-1.886,0.899 -3.938,1.348 -6.158,1.348zM14.901,17.899c0,1.55 0.243,3.053 0.73,4.51c0.486,1.457 1.17,2.758 2.052,3.905c0.912,1.116 2.007,1.999 3.284,2.65c1.277,0.651 2.706,0.976 4.287,0.976c1.642,0 3.101,-0.341 4.378,-1.022c1.277,-0.682 2.342,-1.597 3.193,-2.743c0.882,-1.178 1.551,-2.48 2.007,-3.906c0.456,-1.456 0.684,-2.913 0.684,-4.37c0,-1.55 -0.243,-3.037 -0.73,-4.463c-0.456,-1.457 -1.14,-2.743 -2.052,-3.859c-0.912,-1.147 -2.007,-2.0454 -3.284,-2.6963c-1.247,-0.6509 -2.645,-0.9763 -4.196,-0.9763c-1.642,0 -3.101,0.3409 -4.378,1.0228c-1.277,0.6819 -2.357,1.5958 -3.238,2.7428c-0.882,1.147 -1.566,2.433 -2.053,3.859c-0.456,1.426 -0.684,2.882 -0.684,4.37zM87.233,1.3947v33.0093h-5.153v-14.552h-16.328v14.552h-5.108v-33.0093h5.108v13.8083h16.328v-13.8083zM122.587,34.636c-2.341,0 -4.454,-0.465 -6.34,-1.395c-1.884,-0.93 -3.512,-2.185 -4.88,-3.766c-1.368,-1.611 -2.432,-3.409 -3.192,-5.393c-0.73,-2.014 -1.095,-4.075 -1.095,-6.183c0,-2.2 0.396,-4.293 1.186,-6.276c0.791,-2.015 1.885,-3.797 3.284,-5.3467c1.399,-1.5807 3.041,-2.8204 4.925,-3.7193c1.916,-0.9298 3.984,-1.3947 6.203,-1.3947c2.311,0 4.409,0.4804 6.294,1.4412c1.915,0.9608 3.543,2.2471 4.88,3.8588c1.368,1.6117 2.417,3.4097 3.147,5.3927c0.761,1.984 1.14,4.014 1.14,6.091c0,2.2 -0.395,4.308 -1.186,6.322c-0.759,1.984 -1.839,3.766 -3.238,5.347c-1.398,1.55 -3.056,2.774 -4.971,3.673c-1.885,0.899 -3.937,1.348 -6.157,1.348zM112.279,17.899c0,1.55 0.244,3.053 0.73,4.51c0.487,1.457 1.171,2.758 2.052,3.905c0.913,1.116 2.007,1.999 3.284,2.65c1.277,0.651 2.707,0.976 4.287,0.976c1.642,0 3.102,-0.341 4.379,-1.022c1.277,-0.682 2.341,-1.597 3.192,-2.743c0.882,-1.178 1.551,-2.48 2.007,-3.906c0.456,-1.456 0.684,-2.913 0.684,-4.37c0,-1.55 -0.242,-3.037 -0.729,-4.463c-0.457,-1.457 -1.141,-2.743 -2.053,-3.859c-0.912,-1.147 -2.007,-2.0454 -3.284,-2.6963c-1.246,-0.6509 -2.645,-0.9763 -4.196,-0.9763c-1.641,0 -3.101,0.3409 -4.378,1.0228c-1.277,0.6819 -2.356,1.5958 -3.238,2.7428c-0.881,1.147 -1.565,2.433 -2.052,3.859c-0.457,1.426 -0.685,2.882 -0.685,4.37zM35.754,38.541h-10.764v28.406h-5.154v-28.406h-10.809v-4.602h26.727zM67.324,62.345v4.602h-22.211v-33.008h21.801v4.602h-16.693v9.391h14.458v4.324h-14.458v10.089zM77.656,66.947v-33.008h22.759v4.556h-17.651v9.252h9.487c3.587,0 6.278,0.867 8.073,2.603c1.793,1.705 2.691,3.967 2.691,6.788c0,1.89 -0.396,3.58 -1.186,5.067c-0.761,1.457 -1.916,2.619 -3.466,3.487c-1.521,0.837 -3.452,1.255 -5.793,1.255zM82.764,62.391h9.122c1.398,0 2.523,-0.263 3.375,-0.79c0.882,-0.527 1.505,-1.193 1.87,-1.999c0.395,-0.837 0.593,-1.705 0.593,-2.604c0,-0.899 -0.168,-1.735 -0.502,-2.51c-0.334,-0.775 -0.943,-1.395 -1.824,-1.86c-0.852,-0.496 -2.053,-0.744 -3.603,-0.744h-9.031zM135.036,62.345v4.602h-22.211v-33.008h21.801v4.602h-16.693v9.391h14.458v4.324h-14.458v10.089zM35.64,66.482v33.009h-5.154v-14.552h-16.328v14.552h-5.108v-33.009h5.108v13.808h16.328v-13.808zM53.206,66.482h4.835l12.588,33.009h-5.382l-3.421,-8.973h-12.496l-3.375,8.973h-5.428zM60.823,86.66l-5.199,-14.459l-5.382,14.459zM70.438,105.814v-10.925h1.55c0.852,0 1.581,-0.342 2.189,-1.023c0.639,-0.682 1.171,-1.767 1.597,-3.255c0.456,-1.487 0.805,-3.44 1.049,-5.857c0.273,-2.449 0.471,-5.44 0.593,-8.973l0.228,-9.299h20.843v28.407h4.104v10.925h-4.515v-6.323h-23.123v6.323zM78.465,94.889h14.868v-23.804h-10.946l-0.137,5.393c-0.091,3.564 -0.274,6.586 -0.547,9.066c-0.274,2.448 -0.669,4.432 -1.186,5.951c-0.517,1.518 -1.201,2.65 -2.052,3.394zM122.406,99.724c-2.341,0 -4.454,-0.465 -6.339,-1.395c-1.886,-0.93 -3.512,-2.185 -4.88,-3.766c-1.369,-1.612 -2.433,-3.409 -3.193,-5.393c-0.73,-2.014 -1.095,-4.076 -1.095,-6.183c0,-2.201 0.395,-4.293 1.186,-6.276c0.791,-2.015 1.886,-3.797 3.284,-5.347c1.398,-1.581 3.04,-2.82 4.926,-3.719c1.915,-0.93 3.983,-1.395 6.202,-1.395c2.311,0 4.409,0.48 6.294,1.441c1.916,0.961 3.542,2.247 4.88,3.859c1.369,1.612 2.418,3.409 3.147,5.393c0.76,1.984 1.141,4.014 1.141,6.09c0,2.201 -0.395,4.308 -1.186,6.323c-0.76,1.984 -1.84,3.766 -3.238,5.347c-1.399,1.55 -3.056,2.773 -4.972,3.672c-1.885,0.9 -3.937,1.349 -6.157,1.349zM112.099,82.987c0,1.55 0.243,3.053 0.73,4.509c0.486,1.457 1.17,2.759 2.052,3.906c0.912,1.116 2.007,1.999 3.284,2.65c1.277,0.651 2.706,0.976 4.287,0.976c1.642,0 3.101,-0.341 4.378,-1.023c1.277,-0.681 2.342,-1.596 3.193,-2.743c0.882,-1.178 1.55,-2.479 2.007,-3.905c0.456,-1.457 0.684,-2.913 0.684,-4.37c0,-1.55 -0.244,-3.038 -0.73,-4.463c-0.456,-1.457 -1.14,-2.743 -2.052,-3.859c-0.913,-1.147 -2.007,-2.046 -3.284,-2.697c-1.247,-0.65 -2.646,-0.976 -4.196,-0.976c-1.642,0 -3.102,0.341 -4.379,1.023c-1.277,0.682 -2.356,1.596 -3.238,2.743c-0.882,1.147 -1.566,2.433 -2.052,3.859c-0.456,1.425 -0.684,2.882 -0.684,4.37z" fill="black"/>
</g></svg>