<svg viewBox="0 0 48 48" fill="none" xmlns="http://www.w3.org/2000/svg" xmlns:xlink="http://www.w3.org/1999/xlink" x="0" y="0"><g id="Pinterest">
<circle id="Ellipse 6" cx="24" cy="24" r="23.5" stroke="black"/>
<path id="pinterest" d="M32.74,18.48c-0.33,-1.13 -0.86,-2.08 -1.62,-2.9c-0.74,-0.81 -1.6,-1.42 -2.61,-1.87c-1.15,-0.51 -2.49,-0.76 -3.77,-0.7c-0.47,0.02 -0.93,0.05 -1.37,0.11c-1.26,0.18 -2.37,0.56 -3.39,1.16c-1.31,0.77 -2.32,1.81 -3.03,3.1c-0.36,0.67 -0.72,1.86 -0.88,2.63c-0.18,0.91 -0.02,2.49 0.35,3.39c0.45,1.11 0.82,1.6 1.73,2.29c0.01,0 0.57,0.41 0.95,0.41c0.68,-0.02 0.82,-0.68 0.88,-1c0.01,-0.06 0.03,-0.12 0.04,-0.17c0.01,-0.05 0.03,-0.1 0.05,-0.16c0.09,-0.32 0.22,-0.75 0,-1.13c-0.08,-0.15 -0.17,-0.26 -0.26,-0.36c-0.05,-0.05 -0.09,-0.1 -0.13,-0.16c-0.32,-0.49 -0.49,-1.1 -0.49,-1.81c0,-0.94 0.21,-1.79 0.64,-2.6c0.79,-1.47 2.08,-2.4 3.76,-2.68c0.95,-0.16 2.06,-0.1 2.9,0.17c0.76,0.25 1.41,0.69 1.87,1.27c0.49,0.62 0.78,1.4 0.84,2.32c0.04,0.59 -0.01,1.18 -0.06,1.58c-0.17,1.52 -0.6,2.74 -1.29,3.63c-0.57,0.74 -1.18,1.1 -1.87,1.13c-0.45,0.01 -0.78,-0.08 -1.08,-0.3c-0.28,-0.2 -0.45,-0.45 -0.53,-0.79c-0.09,-0.38 0.02,-0.78 0.13,-1.21l0.02,-0.06c0.1,-0.37 0.21,-0.71 0.31,-1.05c0.16,-0.52 0.33,-1.07 0.47,-1.7c0.16,-0.71 0.18,-1.28 0.07,-1.75c-0.14,-0.59 -0.45,-1.03 -0.92,-1.3c-0.5,-0.3 -1.21,-0.36 -1.8,-0.15c-0.88,0.31 -1.55,1.12 -1.84,2.23c-0.15,0.56 -0.2,1.15 -0.13,1.76c0.05,0.47 0.15,0.9 0.34,1.42c0,0.02 -0.01,0.04 -0.02,0.06c-0.01,0.05 -0.02,0.1 -0.03,0.13c-0.21,0.88 -0.41,1.75 -0.61,2.61c-0.19,0.82 -0.38,1.64 -0.58,2.47l-0.04,0.18c-0.2,0.84 -0.41,1.71 -0.46,2.76l-0.02,0.43c-0.04,0.81 -0.08,1.64 0.02,2.42c0.02,0.15 0.07,0.49 0.4,0.6c0.1,0.08 0.19,0.11 0.28,0.11c0.28,0 0.52,-0.28 0.73,-0.52c0.68,-0.79 1.26,-1.77 1.77,-3.02c0.22,-0.56 0.38,-1.16 0.52,-1.75l0.09,-0.34c0.11,-0.42 0.21,-0.84 0.31,-1.25l0.01,-0.03c0.19,0.17 0.41,0.32 0.67,0.47c0.54,0.3 1.16,0.48 1.82,0.52c0.63,0.05 1.28,-0.03 2.01,-0.24c0.55,-0.16 1.07,-0.41 1.56,-0.72c1.76,-1.14 2.95,-3.13 3.37,-5.61c0.13,-0.74 0.18,-1.34 0.18,-1.99c0,-0.76 -0.09,-1.44 -0.26,-2.04zM31.97,22.36c-0.38,2.23 -1.44,4.01 -2.98,5.02c-0.42,0.27 -0.87,0.48 -1.34,0.61c-0.63,0.18 -1.19,0.25 -1.71,0.22c-0.54,-0.04 -1.02,-0.18 -1.46,-0.42c-0.44,-0.25 -0.73,-0.51 -0.93,-0.86l-0.53,-0.93l-0.48,1.9c-0.1,0.42 -0.2,0.83 -0.31,1.25l-0.09,0.35c-0.14,0.57 -0.28,1.12 -0.48,1.62c-0.46,1.12 -0.97,2.01 -1.56,2.7c-0.04,-0.59 -0.01,-1.26 0.03,-1.9l0.02,-0.44c0.04,-0.96 0.24,-1.79 0.43,-2.59l0.04,-0.19c0.2,-0.83 0.39,-1.65 0.58,-2.47c0.2,-0.86 0.4,-1.73 0.61,-2.6c0.01,-0.03 0.01,-0.05 0.02,-0.08c0.06,-0.18 0.11,-0.36 0.04,-0.55c-0.19,-0.48 -0.29,-0.87 -0.33,-1.29c-0.05,-0.49 -0.02,-0.98 0.1,-1.44c0.22,-0.82 0.69,-1.41 1.29,-1.62c0.15,-0.05 0.31,-0.07 0.46,-0.07c0.24,0 0.47,0.06 0.62,0.14c0.26,0.16 0.43,0.4 0.51,0.75c0.08,0.34 0.06,0.79 -0.06,1.36c-0.13,0.6 -0.29,1.1 -0.46,1.63c-0.1,0.34 -0.21,0.69 -0.31,1.07l-0.02,0.07c-0.14,0.49 -0.29,1.04 -0.14,1.64c0.12,0.55 0.41,0.98 0.87,1.31c0.45,0.33 0.98,0.47 1.61,0.45c0.95,-0.03 1.79,-0.52 2.52,-1.46c0.79,-1.02 1.29,-2.39 1.47,-4.07c0.05,-0.43 0.11,-1.08 0.06,-1.74c-0.07,-1.11 -0.42,-2.05 -1.02,-2.81c-0.58,-0.72 -1.37,-1.25 -2.29,-1.55c-0.96,-0.31 -2.22,-0.39 -3.3,-0.21c-1.95,0.34 -3.46,1.42 -4.38,3.13c-0.5,0.95 -0.74,1.93 -0.74,3.02c0,0.89 0.21,1.67 0.63,2.3c0.06,0.09 0.13,0.17 0.2,0.25c0.06,0.08 0.13,0.15 0.16,0.21c0.03,0.08 -0.05,0.32 -0.08,0.44c-0.02,0.07 -0.04,0.13 -0.06,0.19c-0.02,0.07 -0.03,0.15 -0.05,0.22c-0.01,0.09 -0.04,0.21 -0.07,0.28c-0.1,-0.04 -0.29,-0.14 -0.39,-0.22c-0.78,-0.58 -1.06,-0.96 -1.45,-1.92c-0.3,-0.72 -0.44,-2.14 -0.3,-2.88c0.17,-0.82 0.51,-1.86 0.79,-2.37c0.63,-1.15 1.54,-2.08 2.7,-2.77c0.93,-0.54 1.93,-0.88 3.08,-1.05c0.41,-0.06 0.84,-0.08 1.29,-0.1c1.14,-0.06 2.35,0.16 3.38,0.62c0.91,0.41 1.67,0.95 2.33,1.67c0.66,0.72 1.13,1.55 1.42,2.55c0.15,0.51 0.22,1.12 0.22,1.79c0,0.6 -0.05,1.15 -0.16,1.84z" fill="black"/>
</g></svg>