<svg viewBox="0 0 48 48" fill="none" xmlns="http://www.w3.org/2000/svg" xmlns:xlink="http://www.w3.org/1999/xlink" x="0" y="0"><g id="VK">
<circle id="Ellipse 7" cx="24" cy="24" r="23.5" stroke="black"/>
<path id="vk" d="M37.125,32.95h-3.938c-0.468,0 -0.937,-0.28 -1.218,-0.65l-0.375,-0.61c-0.235,-0.28 -2.391,-2.77 -3.703,-3.57c-0.516,-0.28 -0.704,-0.23 -0.704,-0.23c0,0 -0.046,0.14 -0.046,0.19v2.48c0,1.32 -1.079,2.35 -2.344,2.35h-0.938c-0.234,0 -5.484,-0.1 -9.656,-6.33c-3.281,-4.88 -4.359,-8.06 -4.734,-9.89c-0.094,-0.42 0.047,-0.85 0.281,-1.17c0.281,-0.33 0.656,-0.52 1.078,-0.52h3.328c0.61,0 1.125,0.37 1.313,0.98c0.375,1.08 1.312,3.85 2.437,5.63c1.641,2.72 2.297,2.95 2.485,2.95c0.14,-0.23 0.093,-1.17 0.093,-1.78c0,-0.28 0,-0.51 0,-0.8c0,-0.18 0,-0.42 0,-0.65c0,-1.17 0.047,-2.77 -0.422,-3.52l-0.937,-1.36c-0.188,-0.28 -0.234,-0.65 -0.047,-0.98c0.141,-0.33 0.469,-0.52 0.844,-0.52h5.344c0.796,0 1.406,0.66 1.406,1.41v6.75c0,0.05 0.047,0.09 0.047,0.09c0,0 0.187,0 0.703,-0.47c1.078,-1.07 2.437,-3.09 3.797,-5.86l0.468,-1.07c0.235,-0.52 0.75,-0.85 1.313,-0.85h3.469c0.468,0 0.89,0.24 1.172,0.61c0.281,0.38 0.328,0.89 0.14,1.31l-0.375,0.99v0.05c-0.047,0.09 -1.312,2.57 -2.625,4.4c-1.031,1.41 -1.453,2.07 -1.359,2.3c0.094,0.14 0.703,0.84 1.312,1.41c1.125,1.17 2.532,2.67 3.047,3.65c0.235,0.42 0.469,0.8 0.61,1.13c0.234,0.42 0.234,0.93 -0.047,1.4c-0.282,0.52 -0.703,0.75 -1.219,0.75zM27.281,26.95c0.328,0 0.703,0.14 1.125,0.38c1.547,0.89 3.891,3.65 3.985,3.8l0.046,0.04l0.375,0.61c0.094,0.14 0.235,0.24 0.422,0.24h3.891c0.234,0 0.375,-0.14 0.422,-0.24c0.047,-0.05 0.14,-0.23 0,-0.47c-0.188,-0.33 -0.375,-0.7 -0.61,-1.12c-0.468,-0.85 -1.875,-2.35 -2.906,-3.47c-1.031,-1.13 -1.406,-1.5 -1.5,-1.74c-0.281,-0.7 0.141,-1.26 1.5,-3.14c1.219,-1.68 2.391,-3.98 2.531,-4.26l0.375,-0.99c0.047,-0.14 0.047,-0.32 -0.046,-0.42c-0.094,-0.14 -0.235,-0.19 -0.375,-0.19h-3.469c-0.188,0 -0.375,0.1 -0.422,0.29l-0.469,1.12c-1.031,2.02 -2.531,4.69 -3.984,6.14c-0.61,0.61 -1.172,0.8 -1.641,0.66c-0.562,-0.19 -0.703,-0.8 -0.703,-0.85c0,-0.04 0,-0.04 0,-0.09v-6.8c0,-0.28 -0.234,-0.47 -0.469,-0.47h-5.437l0.937,1.36c0.61,0.99 0.61,2.72 0.563,4.08c0,0.24 0,0.42 0,0.61c0,0.24 0,0.52 0,0.75c0.047,1.31 0.047,2.53 -0.797,2.72c-0.938,0.19 -1.922,-0.8 -3.516,-3.37c-1.078,-1.83 -2.015,-4.41 -2.484,-5.82c-0.047,-0.18 -0.234,-0.33 -0.469,-0.33h-3.281c-0.141,0 -0.281,0.05 -0.375,0.19c-0.094,0.1 -0.094,0.24 -0.094,0.38c0.328,1.73 1.406,4.78 4.594,9.56c3.891,5.81 8.812,5.91 8.859,5.91h0.938c0.797,0 1.406,-0.66 1.406,-1.41v-2.49c0,-0.04 0,-0.7 0.516,-1.03c0.187,-0.09 0.375,-0.14 0.562,-0.14z" fill="black"/>
</g></svg>