<svg viewBox="0 0 48 48" fill="none" xmlns="http://www.w3.org/2000/svg" xmlns:xlink="http://www.w3.org/1999/xlink" x="0" y="0"><g id="YouTube">
<circle id="Ellipse 4" cx="24" cy="24" r="23.5" stroke="black"/>
<g id="youtube">
<path id="Vector" d="M31.83,14h-15.66c-2.851,0 -5.17,2.44 -5.17,5.43v9.14c0,2.99 2.319,5.43 5.17,5.43h15.66c2.851,0 5.17,-2.44 5.17,-5.43v-9.14c0,-2.99 -2.319,-5.43 -5.17,-5.43zM35.939,28.57c0,2.38 -1.844,4.32 -4.109,4.32h-15.66c-2.265,0 -4.109,-1.94 -4.109,-4.32v-9.14c0,-2.38 1.844,-4.32 4.109,-4.32h15.66c2.265,0 4.109,1.94 4.109,4.32z" fill="black"/>
<path id="Vector_2" d="M28.701,23.8l-7.351,-4.51c-0.164,-0.1 -0.367,-0.1 -0.532,0c-0.165,0.1 -0.267,0.28 -0.267,0.48v9.02c0,0.19 0.102,0.38 0.266,0.48c0.082,0.05 0.173,0.07 0.264,0.07c0.093,0 0.186,-0.02 0.269,-0.07l7.351,-4.51c0.163,-0.1 0.263,-0.28 0.263,-0.48c0,-0.2 -0.1,-0.38 -0.263,-0.48zM21.612,27.82v-7.08l5.771,3.54z" fill="black"/>
</g>
</g></svg>